# xmcd CD database file
#
# Track frame offsets:
#	150
#	15557
#	33037
#	49700
#	61245
#	74562
#	92150
#	107880
#	127377
#	144442
#	165595
#	179577
#	197057
#	204420
#	218487
#	223922
#
# Disc length: 3618 seconds
#
# Revision: 3
# Processed by: cddbd v1.5.2PL0 Copyright (c) Steve Scherf et al.
# Submitted via: CDex 1.70beta2
#
DISCID=f10e2010
DTITLE=La Rouille - Ocre
DYEAR=2003
DGENRE=Blues
TTITLE0=Les balayeurs
TTITLE1=Hommage et autres Gavroche
TTITLE2=Samedi
TTITLE3=Fragment
TTITLE4=Moi
TTITLE5=Tire pas dessus
TTITLE6=Esp(n)oir
TTITLE7=A la dérive
TTITLE8=La valise
TTITLE9=Minuit
TTITLE10=La vieille
TTITLE11=Triste vent froid
TTITLE12=Frustration
TTITLE13=Salope
TTITLE14=Opus déjà cordé
TTITLE15=La dernière ligne
EXTD=YEAR: 2003
EXTT0=
EXTT1=
EXTT2=
EXTT3=
EXTT4=
EXTT5=
EXTT6=
EXTT7=
EXTT8=
EXTT9=
EXTT10=
EXTT11=
EXTT12=
EXTT13=
EXTT14=
EXTT15=
PLAYORDER=
